<svg width="44" height="44" viewBox="0 0 44 44" fill="none" xmlns="http://www.w3.org/2000/svg">
<rect width="44" height="44" fill="url(#paint0_radial_43_80)"/>
<rect x="0.5" y="0.5" width="43" height="43" stroke="#00FFAC" stroke-opacity="0.46"/>
<path d="M21.9707 9.97263C21.4406 9.9804 20.9353 10.1983 20.5657 10.5784C20.1962 10.9586 19.9927 11.4699 20 12V20H12C11.735 19.9962 11.4718 20.0452 11.2259 20.144C10.98 20.2428 10.7561 20.3896 10.5674 20.5757C10.3786 20.7617 10.2288 20.9835 10.1265 21.228C10.0242 21.4725 9.9715 21.7349 9.9715 22C9.9715 22.265 10.0242 22.5274 10.1265 22.7719C10.2288 23.0165 10.3786 23.2382 10.5674 23.4243C10.7561 23.6104 10.98 23.7571 11.2259 23.8559C11.4718 23.9548 11.735 24.0037 12 24H20V32C19.9962 32.265 20.0452 32.5281 20.144 32.7741C20.2429 33.02 20.3896 33.2438 20.5757 33.4326C20.7618 33.6213 20.9835 33.7712 21.228 33.8735C21.4725 33.9758 21.7349 34.0285 22 34.0285C22.265 34.0285 22.5274 33.9758 22.772 33.8735C23.0165 33.7712 23.2382 33.6213 23.4243 33.4326C23.6104 33.2438 23.7571 33.02 23.8559 32.7741C23.9548 32.5281 24.0037 32.265 24 32V24H32C32.265 24.0037 32.5281 23.9548 32.7741 23.8559C33.02 23.7571 33.2438 23.6104 33.4326 23.4243C33.6213 23.2382 33.7712 23.0165 33.8735 22.7719C33.9758 22.5274 34.0285 22.265 34.0285 22C34.0285 21.7349 33.9758 21.4725 33.8735 21.228C33.7712 20.9835 33.6213 20.7617 33.4326 20.5757C33.2438 20.3896 33.02 20.2428 32.7741 20.144C32.5281 20.0452 32.265 19.9962 32 20H24V12C24.0036 11.7326 23.9536 11.4671 23.8529 11.2194C23.7522 10.9716 23.6028 10.7466 23.4136 10.5576C23.2244 10.3686 22.9993 10.2194 22.7514 10.1189C22.5036 10.0185 22.2381 9.96871 21.9707 9.97263Z" fill="white"/>
<defs>
<radialGradient id="paint0_radial_43_80" cx="0" cy="0" r="1" gradientUnits="userSpaceOnUse" gradientTransform="translate(22 23.3435) rotate(90) scale(28.7176)">
<stop stop-color="#58EBBB"/>
<stop offset="1" stop-color="#278062"/>
</radialGradient>
</defs>
</svg>
