<svg width="24" height="24" viewBox="0 0 24 24" fill="none" xmlns="http://www.w3.org/2000/svg">
<g id="Info_alt_fill">
<path id="Subtract" fill-rule="evenodd" clip-rule="evenodd" d="M11 22C6.02944 22 2 17.9706 2 13C2 8.02944 6.02944 4 11 4C15.9706 4 20 8.02944 20 13C20 17.9706 15.9706 22 11 22ZM11 8C10.4477 8 10 8.44772 10 9C10 9.55228 10.4477 10 11 10H11.01C11.5623 10 12.01 9.55228 12.01 9C12.01 8.44772 11.5623 8 11.01 8H11ZM9.5 12C8.94772 12 8.5 12.4477 8.5 13C8.5 13.5523 8.94772 14 9.5 14H10V17C10 17.5523 10.4477 18 11 18H13C13.5523 18 14 17.5523 14 17C14 16.4477 13.5523 16 13 16H12V13C12 12.4477 11.5523 12 11 12H9.5Z" fill="#E2D5D5"/>
</g>
</svg>
